<mxfile host="65bd71144e">
    <diagram id="faeSXg8f0V2fyYmfKQ99" name="Page-1">
        <mxGraphModel dx="690" dy="450" grid="1" gridSize="10" guides="1" tooltips="1" connect="1" arrows="1" fold="1" page="1" pageScale="1" pageWidth="850" pageHeight="1100" math="0" shadow="0">
            <root>
                <mxCell id="0"/>
                <mxCell id="1" parent="0"/>
                <mxCell id="10" style="edgeStyle=none;html=1;entryX=0.429;entryY=0.012;entryDx=0;entryDy=0;entryPerimeter=0;" edge="1" parent="1" source="8" target="9">
                    <mxGeometry relative="1" as="geometry"/>
                </mxCell>
                <mxCell id="14" style="edgeStyle=none;html=1;" edge="1" parent="1" source="8" target="13">
                    <mxGeometry relative="1" as="geometry"/>
                </mxCell>
                <mxCell id="8" value="App&lt;br&gt;state: projects&lt;br&gt;state: filter&lt;br&gt;&lt;br&gt;handleFilterChange (wrapper for setFilter)&lt;br&gt;" style="whiteSpace=wrap;html=1;" vertex="1" parent="1">
                    <mxGeometry x="370" y="90" width="290" height="140" as="geometry"/>
                </mxCell>
                <mxCell id="9" value="ProjectForm&lt;br&gt;&amp;lt;filter input /&amp;gt;&lt;br&gt;&lt;br&gt;- create a controlled component" style="whiteSpace=wrap;html=1;" vertex="1" parent="1">
                    <mxGeometry x="180" y="290" width="310" height="110" as="geometry"/>
                </mxCell>
                <mxCell id="13" value="ProjectsList&lt;br&gt;&lt;br&gt;- responsible for filtering" style="whiteSpace=wrap;html=1;" vertex="1" parent="1">
                    <mxGeometry x="610" y="290" width="230" height="110" as="geometry"/>
                </mxCell>
                <mxCell id="15" value="props: projects&lt;br&gt;props: filter" style="text;html=1;align=center;verticalAlign=middle;resizable=0;points=[];autosize=1;strokeColor=none;fillColor=none;" vertex="1" parent="1">
                    <mxGeometry x="630" y="240" width="100" height="40" as="geometry"/>
                </mxCell>
                <mxCell id="16" value="props: handleFilterChange&lt;br&gt;props: filter (pass down so input value can reflect what is in state)" style="text;html=1;align=center;verticalAlign=middle;resizable=0;points=[];autosize=1;strokeColor=none;fillColor=none;" vertex="1" parent="1">
                    <mxGeometry x="180" y="240" width="370" height="40" as="geometry"/>
                </mxCell>
            </root>
        </mxGraphModel>
    </diagram>
</mxfile>